# xmcd CD database file
#
# Track frame offsets:
#	150
#	24434
#	62194
#	89865
#	110259
#	135095
#	161043
#	196204
#	232458
#	252349
#	272347
#	294067
#	308469
#	334165
#
# Disc length: 4650 seconds
#
# Revision: 0
# Processed by: cddbd v1.5.1PL0 Copyright (c) Steve Scherf et al.
# Submitted via: CDex 1.51
#
DISCID=bf12280e
DTITLE=claude challe - nirvana lounge by claude chall cd2
DYEAR=1900
DGENRE=New Age
TTITLE0=Señor Coconut Showroom Dummies 
TTITLE1=Don Air Besame Mucho
TTITLE2=Sa Trincha Jazzybiza
TTITLE3=Deep Dive Corp Summertime
TTITLE4=Carlos Campos and Ravin Nirvana Lounge
TTITLE5=Ravi Sari Bombay Mix
TTITLE6=Ruff Driverz Deeper Love (Deeper Dub Thing)
TTITLE7=DJ Chus and David Penn Sunshine (Montejano's Spanish Guitar)
TTITLE8=Silicone Soul Right On , Right On
TTITLE9=Time Passing Bossample (Barramundi Mix)
TTITLE10=Ottoman Military Project Ceddin Deden (Mehter Marsi) (Radio 2000 Mix)
TTITLE11=Amr Diab El Alem Alla 
TTITLE12=George Alkeos Sign (To Simadi)
TTITLE13=Sidestepper Adando 
EXTD=
EXTT0=
EXTT1=
EXTT2=
EXTT3=
EXTT4=
EXTT5=
EXTT6=
EXTT7=
EXTT8=
EXTT9=
EXTT10=
EXTT11=
EXTT12=
EXTT13=
PLAYORDER=
